<svg xmlns="http://www.w3.org/2000/svg" viewBox="0 0 32 32">
  <defs>
    <linearGradient id="goldGrad" x1="0%" y1="0%" x2="100%" y2="100%">
      <stop offset="0%" style="stop-color:#d4af37;stop-opacity:1" />
      <stop offset="100%" style="stop-color:#c9a84c;stop-opacity:1" />
    </linearGradient>
  </defs>
  <!-- Rounded square background -->
  <rect width="32" height="32" rx="6" fill="#1a1a1a"/>
  <!-- Stylized "S" for Solution -->
  <path d="M 8 9 Q 8 7 10 7 L 22 7 Q 24 7 24 9 Q 24 11 22 11 L 12 11 Q 10 11 10 13 Q 10 15 12 15 L 20 15 Q 22 15 22 17 Q 22 19 20 19 L 10 19 Q 8 19 8 21 Q 8 23 10 23 L 22 23 Q 24 23 24 25 Q 24 27 22 27 L 10 27 Q 8 27 8 25"
        fill="none"
        stroke="url(#goldGrad)"
        stroke-width="2.5"
        stroke-linecap="round"
        stroke-linejoin="round"/>
</svg>
